<?xml version="1.0" standalone="no"?>
<!DOCTYPE svg PUBLIC "-//W3C//DTD SVG 20010904//EN"
 "http://www.w3.org/TR/2001/REC-SVG-20010904/DTD/svg10.dtd">
<svg version="1.0" xmlns="http://www.w3.org/2000/svg"
 width="700.000000pt" height="700.000000pt" viewBox="0 0 700.000000 700.000000"
 preserveAspectRatio="xMidYMid meet">
<metadata>
Created by potrace 1.14, written by Peter Selinger 2001-2017
</metadata>
<g transform="translate(0.000000,700.000000) scale(0.100000,-0.100000)"
fill="#000000" stroke="none">
<path d="M3195 5810 c-2 -3 -4 -1046 -3 -2316 l0 -2311 1512 0 1512 0 1 323 1
324 -47 1 c-25 0 -559 0 -1187 1 l-1141 0 -1 1971 c0 1085 -1 1982 -1 1993 -1
21 -2 21 -321 21 -177 0 -323 -3 -325 -7z"/>
<path d="M6069 5793 c-111 -55 -293 -270 -393 -466 -59 -116 -63 -155 -22
-235 24 -47 78 -97 97 -89 4 1 38 40 75 87 78 98 108 129 337 364 157 161 167
173 162 203 -10 68 -36 113 -80 138 -55 33 -107 32 -176 -2z"/>
<path d="M5360 4670 c-229 -47 -468 -194 -681 -418 -259 -273 -445 -611 -508
-920 -26 -123 -23 -336 4 -422 50 -158 148 -288 276 -364 186 -111 488 -127
756 -41 341 111 685 395 902 745 55 88 151 280 151 299 -1 14 -75 81 -100 89
-6 2 -13 -5 -17 -15 -13 -34 -107 -188 -164 -268 -96 -135 -241 -291 -354
-380 -27 -22 -52 -42 -55 -45 -11 -13 -148 -100 -202 -128 -70 -38 -207 -87
-273 -97 -129 -20 -262 -8 -337 31 -82 42 -143 127 -175 239 -12 44 -21 251
-10 261 2 2 44 11 93 19 510 88 980 387 1154 735 54 108 74 194 74 325 1 201
-54 284 -230 346 -79 27 -196 31 -304 9z m227 -252 c18 -19 25 -96 12 -161
-47 -252 -342 -555 -705 -722 -115 -53 -254 -91 -254 -69 0 12 74 184 108 249
104 200 213 349 367 501 123 121 221 184 340 221 38 11 112 1 132 -19z"/>
<path d="M1580 3589 c-118 -21 -187 -39 -278 -75 -272 -107 -507 -324 -641
-592 -34 -68 -87 -217 -96 -272 -3 -19 -8 -48 -11 -65 -11 -63 -13 -93 -14
-190 -1 -386 162 -718 475 -964 142 -112 383 -213 565 -237 72 -10 249 -10
325 0 391 48 746 305 928 671 117 237 151 539 91 795 -54 227 -158 413 -324
581 -174 175 -372 283 -615 334 -87 19 -330 27 -405 14z m332 -493 c278 -65
487 -284 547 -571 8 -41 7 -232 -2 -275 -27 -135 -95 -264 -186 -357 -55 -56
-125 -113 -139 -113 -6 0 -12 -4 -14 -8 -5 -12 -127 -68 -168 -77 -187 -42
-294 -38 -453 17 -95 33 -177 86 -267 177 -94 95 -153 196 -187 321 -27 101
-24 284 6 380 48 157 133 281 256 376 87 68 227 129 323 140 26 3 48 7 50 8 8
9 176 -4 234 -18z"/>
</g>
</svg>
